<svg height="512" viewBox="0 0 64 64" width="512" xmlns="http://www.w3.org/2000/svg"><path d="m52 29.526v-24.526a3 3 0 0 0 -3-3h-44a3 3 0 0 0 -3 3v44a3 3 0 0 0 3 3h24.526a16.989 16.989 0 1 0 22.474-22.474zm-47-25.526h44a1 1 0 0 1 1 1v5h-46v-5a1 1 0 0 1 1-1zm0 46a1 1 0 0 1 -1-1v-37h46v16.753a17 17 0 0 0 -21.247 21.247zm40 10a15 15 0 1 1 15-15 15.017 15.017 0 0 1 -15 15z"/><path d="m6 6h2v2h-2z"/><path d="m10 6h2v2h-2z"/><path d="m14 6h2v2h-2z"/><path d="m46 6h2v2h-2z"/><path d="m45.659 34.248a1 1 0 0 0 -1.318 0l-8 7a1 1 0 0 0 -.341.752v5a1 1 0 0 0 1.64.768l4.36-3.633v10.865a1 1 0 0 0 1 1h4a1 1 0 0 0 1-1v-10.865l4.36 3.633a1 1 0 0 0 1.64-.768v-5a1 1 0 0 0 -.341-.752zm6.341 10.617-4.36-3.633a1 1 0 0 0 -1.64.768v12h-2v-12a1 1 0 0 0 -1.64-.768l-4.36 3.633v-2.411l7-6.125 7 6.125z"/></svg>