<svg height="495pt" viewBox="0 -68 495.62 495" width="495pt" xmlns="http://www.w3.org/2000/svg"><path d="m183.996094 288.296875h-112c-4.417969 0-8 3.582031-8 8s3.582031 8 8 8h112c4.417968 0 8-3.582031 8-8s-3.582032-8-8-8zm0 0"/><path d="m206.398438 288.457031c-.503907.085938-.988282.246094-1.441407.480469-.511719.175781-1 .417969-1.449219.71875l-1.191406.960938c-3.09375 3.152343-3.09375 8.203124 0 11.359374.378906.339844.777344.660157 1.191406.960938.449219.300781.9375.542969 1.449219.71875.453125.230469.9375.390625 1.441407.480469.527343.09375 1.0625.144531 1.597656.160156 3.050781-.003906 5.832031-1.738281 7.175781-4.476563 1.34375-2.738281 1.011719-6-.851563-8.414062-1.863281-2.414062-4.933593-3.558594-7.921874-2.949219zm0 0"/><path d="m399.996094 168.296875c-8.949219-.015625-17.855469 1.222656-26.460938 3.679687-19.503906-46.757812-63.378906-78.796874-113.851562-83.144531-50.476563-4.347656-99.183594 19.722657-126.390625 62.457031-3.476563-9.964843-5.265625-20.441406-5.296875-30.992187.136718-42.578125 28.203125-80.015625 69.035156-92.082031 3.144531-.914063 5.417969-3.652344 5.730469-6.914063.316406-3.265625-1.394531-6.386719-4.308594-7.886719-49.988281-25.507812-110.980469-12.941406-146.820313 30.242188-35.835937 43.1875-36.9375 105.453125-2.652343 149.878906-36.640625 18.105469-55.980469 59.066406-46.667969 98.863282 9.308594 39.796874 44.8125 67.929687 85.683594 67.898437 0 0 317.839844-.167969 320.714844-.433594 50.945312-4.84375 89.136718-48.804687 86.808593-99.929687-2.324219-51.125-44.34375-91.4375-95.523437-91.636719zm-360-48c.066406-57.410156 46.589844-103.933594 104-104 9.914062-.019531 19.777344 1.390625 29.289062 4.191406-37.484375 19.191407-61.128906 57.695313-61.289062 99.808594.015625 17.035156 3.96875 33.839844 11.554687 49.09375-2.839843 6.375-5.179687 12.960937-7 19.695313-16.6875-5.792969-34.742187-6.347657-51.753906-1.589844-15.996094-18.738282-24.789063-42.5625-24.800781-67.199219zm367.28125 223.632813c-2.40625.214843-319.28125.367187-319.28125.367187-29.578125.046875-56.179688-18.003906-67.0625-45.507813-10.886719-27.503906-3.839844-58.867187 17.761718-79.074218 21.605469-20.207032 53.367188-25.144532 80.085938-12.449219 2.238281 1.074219 4.847656 1.046875 7.0625-.070313 2.21875-1.117187 3.789062-3.199218 4.257812-5.636718 10.230469-53.289063 54.953126-93.085938 109.074219-97.050782 54.121094-3.96875 104.167969 28.878907 122.0625 80.109376.710938 2.039062 2.21875 3.703124 4.175781 4.617187 1.960938.910156 4.203126.992187 6.222657.222656 29.15625-11.054687 62.082031-4.164062 84.351562 17.660157 22.273438 21.824218 29.835938 54.601562 19.375 83.976562-10.457031 29.375-37.03125 49.996094-68.085937 52.835938zm0 0"/></svg>