<svg id="Capa_1" enable-background="new 0 0 512 512" height="512" viewBox="0 0 512 512" width="512" xmlns="http://www.w3.org/2000/svg"><g><path d="m128.266 512h-127.734v-342.247h127.734l10 171.123z" fill="#fff5f5"/><path d="m128.266 169.753v342.247h127.734l10-166.5-10-175.747z" fill="#ebe1dc"/><path d="m256 169.753v342.247h127.734l10-171.124-10-171.123z" fill="#c8beb9"/><path d="m351 121s-93.515-121-95-121-2.965.022-4.44.064c-103.762 3.005-165.375 117.729-112.901 207.295l117.341 200.286z" fill="#ff6c6c"/><path d="m383.734 169.753h127.734v342.247h-127.734z" fill="#ebe1dc"/><path d="m260.44.064c-1.475-.043-2.955-.064-4.44-.064v407.645l117.341-200.286c52.474-89.566-9.139-204.29-112.901-207.295z" fill="#c83c50"/><path d="m256 72.399 27.797 72.884-27.797 54.727-45.467 12.323-2.33-47.05-25.771-39.434 44.028-16.755z" fill="#ffe89c"/><path d="m301.467 212.333 2.33-47.05 25.771-39.434-44.028-16.755-29.54-36.695v127.611z" fill="#fad17f"/></g></svg>