<svg height="512pt" viewBox="0 0 512 512" width="512pt" xmlns="http://www.w3.org/2000/svg"><path d="m421 271v171h-210v-171l30-30h150zm0 0" fill="#faecd8"/><path d="m421 271v171h-105v-201h75zm0 0" fill="#f4d7af"/><path d="m271 331h90v111h-90zm0 0" fill="#4a696f"/><path d="m316 331h45v111h-45zm0 0" fill="#384949"/><path d="m459.699219 353.800781c-33.300781 24.300781-72.300781 37.199219-113.699219 37.199219-10.199219 0-20.398438-.902344-30-2.402344-93.300781-14.398437-165-95.398437-165-192.597656 0-68.402344 34.800781-126.300781 93.300781-162.300781l53.699219-33.699219-62.699219 5.097656c-131.402343 10.503906-235.300781 118.902344-235.300781 250.902344 0 140.699219 115.300781 256 256 256 20.699219 0 40.5-2.402344 60-7.199219 70.800781-17.101562 132.398438-65.199219 166.902344-132.101562l29.097656-56.101563zm0 0" fill="#ffda2d"/><path d="m512 316.597656-29.097656 56.101563c-34.503906 66.902343-96.101563 115-166.902344 132.101562v-116.203125c9.601562 1.5 19.800781 2.402344 30 2.402344 41.398438 0 80.398438-12.898438 113.699219-37.199219zm0 0" fill="#fdbf00"/><path d="m421 211-25.199219 30h-159.601562l-25.199219-30c-2.101562-13.199219-5.699219-26.398438-.601562-39 8.101562-19.5 24.300781-34.800781 44.402343-41.398438 15-5.101562 29.097657-13.5 40.199219-24.902343l10.5-10.199219h21l10.5 10.199219c11.101562 11.402343 25.199219 19.800781 40.199219 24.902343 20.101562 6.597657 36.300781 21.898438 44.402343 41.398438 5.097657 12.601562 1.5 25.800781-.601562 39zm0 0" fill="#ffda2d"/><path d="m421 211-25.199219 30h-79.800781v-145.5h10.5l10.5 10.199219c11.101562 11.402343 25.199219 19.800781 40.199219 24.902343 20.101562 6.597657 36.300781 21.898438 44.402343 41.398438 5.097657 12.601562 1.5 25.800781-.601562 39zm0 0" fill="#fdbf00"/><path d="m361 76c0 24.902344-20.097656 45-45 45s-45-20.097656-45-45 20.097656-45 45-45v30c-8.402344 0-15 6.597656-15 15s6.597656 15 15 15 15-6.597656 15-15zm0 0" fill="#ffda2d"/><path d="m211 211h210v60h-210zm0 0" fill="#f4d7af"/><path d="m316 121v-30c8.402344 0 15-6.597656 15-15h30c0 24.902344-20.097656 45-45 45zm0 0" fill="#fdbf00"/><path d="m316 211h105v60h-105zm0 0" fill="#dabba6"/></svg>