<svg id="Capa_1" enable-background="new 0 0 512 512" height="512" viewBox="0 0 512 512" width="512" xmlns="http://www.w3.org/2000/svg"><g><path d="m447.996 417.458c-11.001 0-15.775-3.58-23.002-9-8.911-6.683-20.001-15-41.002-15-21 0-32.09 8.317-41.001 15-7.227 5.42-12 9-23.001 9-10.999 0-15.773-3.58-22.999-9-8.91-6.683-20-15-41-15-20.999 0-32.088 8.317-40.998 15-7.226 5.42-11.999 9-22.998 9s-15.773-3.58-22.999-9c-8.91-6.683-20-15-41-15s-32.09 8.317-41 15c-7.226 5.42-12 9-22.999 9s-15.773-3.58-22.999-9c-8.91-6.683-19.999-15-40.998-15v30c10.999 0 15.772 3.58 22.998 9 8.91 6.683 19.999 15 40.999 15 20.999 0 32.089-8.317 40.999-15 7.227-5.42 12-9 23-9s15.773 3.58 23 9c8.91 6.683 20 15 40.999 15s32.088-8.317 40.998-15c7.226-5.42 11.999-9 22.998-9 11 0 15.773 3.58 23 9 8.91 6.683 20 15 40.999 15 21 0 32.09-8.317 41.001-15 7.227-5.42 12-9 23.001-9s15.775 3.58 23.002 9c8.911 6.683 20.001 15 41.002 15s32.091-8.317 41.002-15c7.227-5.42 12.001-9 23.002-9v-30c-21.001 0-32.091 8.317-41.002 15-7.227 5.419-12.001 9-23.002 9z"/><path d="m447.996 352.454c-11.001 0-15.775-3.58-23.002-9-8.911-6.683-20.001-15-41.002-15-21 0-32.09 8.317-41.001 15-7.227 5.42-12 9-23.001 9-10.999 0-15.773-3.58-22.999-9-8.91-6.683-20-15-41-15-20.999 0-32.088 8.317-40.998 15-7.226 5.42-11.999 9-22.998 9s-15.773-3.58-22.999-9c-8.91-6.683-20-15-41-15s-32.09 8.317-41 15c-7.226 5.42-12 9-22.999 9s-15.773-3.58-22.999-9c-8.91-6.683-19.999-15-40.998-15v30c10.999 0 15.772 3.58 22.998 9 8.91 6.683 19.999 15 40.999 15 20.999 0 32.089-8.317 40.999-15 7.227-5.42 12-9 23-9s15.773 3.58 23 9c8.91 6.683 20 15 40.999 15s32.088-8.317 40.998-15c7.226-5.42 11.999-9 22.998-9 11 0 15.773 3.58 23 9 8.91 6.683 20 15 40.999 15 21 0 32.09-8.317 41.001-15 7.227-5.42 12-9 23.001-9s15.775 3.58 23.002 9c8.911 6.683 20.001 15 41.002 15s32.091-8.317 41.002-15c7.227-5.42 12.001-9 23.002-9v-30c-21.001 0-32.091 8.317-41.002 15-7.227 5.42-12.001 9-23.002 9z"/><path d="m472.465 272.352c-4.661-115.378-99.964-207.81-216.465-207.81-116.502 0-211.805 92.433-216.465 207.812-8.673-6.461-19.668-13.905-39.535-13.905v30c10.999 0 15.772 3.58 22.998 9 8.91 6.683 19.999 15 40.999 15 20.999 0 32.089-8.317 40.999-15 7.227-5.42 12-9 23-9s15.773 3.58 23 9c8.91 6.683 20 15 40.999 15s32.088-8.317 40.998-15c7.226-5.42 11.999-9 22.998-9 11 0 15.773 3.58 23 9 8.91 6.683 20 15 40.999 15 21 0 32.09-8.317 41.001-15 7.227-5.42 12-9 23.001-9s15.775 3.58 23.002 9c8.911 6.683 20.001 15 41.002 15s32.091-8.317 41.002-15c7.227-5.42 12.001-9 23.002-9v-30c-19.866 0-30.862 7.442-39.535 13.903zm-129.474 1.097c-7.227 5.42-12 9-23.001 9-10.999 0-15.773-3.58-22.999-9-8.91-6.683-20-15-41-15-20.999 0-32.088 8.317-40.998 15-7.226 5.42-11.999 9-22.998 9s-15.773-3.58-22.999-9c-8.879-6.659-19.925-14.939-40.781-14.997 4.591-26.767 17.503-51.325 37.346-70.5 24.298-23.479 56.416-36.409 90.438-36.409 33.76 0 65.745 12.987 90.063 36.57 19.792 19.194 32.773 43.693 37.547 70.341-20.749.101-31.762 8.353-40.618 14.995zm71.959-6.928c-3.541-37.948-20.377-73.153-48.002-99.944-29.946-29.041-69.348-45.035-110.948-45.035-41.843 0-81.364 15.923-111.285 44.836-27.714 26.78-44.464 62.073-47.762 100.194-3.754 2.227-6.978 4.643-9.957 6.876-5.933 4.45-10.219 7.655-17.649 8.662-.004-.328-.007-.639-.007-.908 0-102.925 83.735-186.66 186.66-186.66s186.66 83.735 186.66 186.66c0 .302-.008.606-.009.908-7.434-1.005-11.722-4.211-17.657-8.662-3.001-2.25-6.253-4.686-10.044-6.927z"/></g></svg>